HIERARCHY
ROOT hip
{
	OFFSET 0.000000 0.000000 0.000000 
	CHANNELS 6 Xposition Yposition Zposition Xrotation Zrotation Yrotation
	JOINT abdomen
	{
		OFFSET 0.000000 3.402643 0.000000 
		CHANNELS 3 Xrotation Zrotation Yrotation
		JOINT chest
		{
			OFFSET 0.000000 8.438565 -0.680529 
			CHANNELS 3 Xrotation Zrotation Yrotation
			JOINT neck
			{
				OFFSET 0.000000 10.207942 -0.272212 
				CHANNELS 3 Xrotation Zrotation Yrotation
				JOINT head
				{
					OFFSET 0.000000 3.130431 0.000000 
					CHANNELS 3 Xrotation Zrotation Yrotation
					End Site
					{
						OFFSET 0.000000 3.130435 0.000000 
					}
				}
			}
			JOINT lCollar
			{
				OFFSET 3.470700 6.669187 -0.816635 
				CHANNELS 3 Yrotation Zrotation Xrotation
				JOINT lShldr
				{
					OFFSET 3.198488 0.000000 0.000000 
					CHANNELS 3 Zrotation Yrotation Xrotation
					JOINT lForeArm
					{
						OFFSET 10.139888 0.000000 0.000000 
						CHANNELS 3 Yrotation Zrotation Xrotation
						JOINT lHand
						{
							OFFSET 8.370511 0.000000 0.000000 
							CHANNELS 3 Zrotation Yrotation Xrotation
							End Site
							{
								OFFSET 4.083176 0.000000 0.000000 
							}
						}
					}
				}
			}
			JOINT rCollar
			{
				OFFSET -3.470700 6.669187 -0.816635 
				CHANNELS 3 Yrotation Zrotation Xrotation
				JOINT rShldr
				{
					OFFSET -3.198488 0.000000 0.000000 
					CHANNELS 3 Zrotation Yrotation Xrotation
					JOINT rForeArm
					{
						OFFSET -10.139888 0.000000 0.000000 
						CHANNELS 3 Yrotation Zrotation Xrotation
						JOINT rHand
						{
							OFFSET -8.370511 0.000000 0.000000 
							CHANNELS 3 Zrotation Yrotation Xrotation
							End Site
							{
								OFFSET -4.083176 0.000000 0.000000 
							}
						}
					}
				}
			}
		}
	}
	JOINT lThigh
	{
		OFFSET 5.308129 -1.633274 1.361059 
		CHANNELS 3 Xrotation Zrotation Yrotation
		JOINT lShin
		{
			OFFSET -2.041588 -20.007561 0.000000 
			CHANNELS 3 Xrotation Zrotation Yrotation
			JOINT lFoot
			{
				OFFSET 0.000000 -19.190928 -1.224953 
				CHANNELS 3 Xrotation Yrotation Zrotation
				End Site
				{
					OFFSET 0.000000 -2.449906 4.627600 
				}
			}
		}
	}
	JOINT rThigh
	{
		OFFSET -5.308129 -1.633274 1.361059 
		CHANNELS 3 Xrotation Zrotation Yrotation
		JOINT rShin
		{
			OFFSET 2.041588 -20.007561 0.000000 
			CHANNELS 3 Xrotation Zrotation Yrotation
			JOINT rFoot
			{
				OFFSET 0.000000 -19.190928 -1.224953 
				CHANNELS 3 Xrotation Yrotation Zrotation
				End Site
				{
					OFFSET 0.000000 -2.449906 4.627600 
				}
			}
		}
	}
}
MOTION
Frames: 20
Frame Time: 0.033333
18.449171 45.358875 51.658489 -7.442373 -4.241442 14.469478 -20.727631 -6.881092 1.160965 40.040592 -2.713611 12.073658 5.590830 -3.846719 -6.770468 -17.947836 3.371879 -8.780202 -4.196812 -19.305742 2.178580 -49.378998 5.862712 29.402582 -44.707157 4.760435 -2.087433 4.296107 -18.256454 -0.559359 8.790242 -9.286129 8.469380 57.313839 56.340427 61.601074 25.854092 -6.056175 1.782964 -3.203140 17.554853 -0.122914 -12.978862 3.699866 -7.942661 34.524963 8.022580 -6.446331 -16.251856 1.955407 -7.788184 -4.393048 -1.756809 -13.107765 28.615137 -3.933953 4.405631 -18.965271 -2.930054 11.560556 
18.635626 45.394272 51.675983 -7.430042 -3.970395 11.376163 -20.727631 -6.881092 1.160965 39.299587 -1.145080 10.747417 4.842662 -3.377170 -5.317847 -16.685131 3.297837 -7.158880 -4.907080 -19.245417 1.001539 -49.420490 3.796985 30.759695 -41.438274 4.685452 -4.262734 3.760996 -16.041370 -0.411423 8.746343 -5.198028 7.162147 54.743351 50.682556 59.284969 23.108948 -5.100398 -4.610912 -3.665126 17.475668 -0.132210 -11.632168 3.718694 -5.439752 33.518723 8.159573 -4.974326 -16.011309 1.956620 -7.873513 -4.430128 -1.726210 -11.493448 28.153982 -4.487384 5.494147 -18.898273 -2.886240 11.206546 
18.754707 45.431702 51.719925 -7.446837 -3.650672 8.621026 -20.727631 -6.881092 1.160965 38.825989 0.233676 9.436466 3.706812 -2.451646 -4.035225 -15.323526 3.048160 -5.609631 -5.444596 -18.953953 -0.458631 -49.597996 1.909764 32.686592 -38.056759 4.246329 -6.827843 3.615584 -14.000788 -0.341407 8.623816 -1.022840 5.603650 52.548870 44.676525 57.683468 21.420538 -4.066292 -10.975073 -4.150205 16.869009 -0.118302 -10.334475 3.679284 -3.096501 32.451626 8.338070 -3.669715 -15.745845 1.961666 -8.033401 -4.401669 -1.639036 -10.393027 27.659538 -5.173831 6.722046 -18.895050 -2.812092 10.770439 
18.807678 45.477673 51.781357 -7.297779 -3.361284 6.250348 -20.727631 -6.881092 1.160965 38.315693 1.591697 8.053232 2.619131 -1.727943 -2.874455 -14.129190 2.842676 -4.222394 -5.808564 -18.849285 -2.247491 -49.736103 0.539380 34.590164 -34.623901 3.626890 -8.967632 3.177371 -12.156167 -0.240327 8.702611 2.922327 4.124957 51.354313 38.957874 56.863064 19.736935 -2.874702 -16.852335 -4.507273 16.360241 -0.102447 -9.326627 3.599815 -1.062367 31.373333 8.586623 -2.555062 -15.425259 1.992417 -8.288759 -4.515626 -1.549224 -9.593493 27.208904 -5.758955 7.871691 -18.973228 -2.731164 10.272417 
18.803650 45.527714 51.854183 -6.953534 -3.092365 4.302720 -20.727631 -6.881092 1.160965 37.701279 2.889989 6.680656 1.597983 -1.219621 -1.880196 -13.121417 2.702167 -3.054828 -6.330478 -18.924107 -3.738104 -49.637913 -0.496826 36.090603 -31.494165 3.096159 -11.048757 2.240288 -10.390353 -0.089389 8.801739 6.552996 2.614868 50.879726 33.531410 56.657001 18.078297 -1.555901 -21.966269 -4.768213 15.851664 -0.091929 -8.723084 3.493022 0.626873 30.450100 8.885483 -1.579464 -15.147891 2.035313 -8.614586 -4.846669 -1.432190 -9.010908 26.868853 -6.252550 8.898601 -19.110519 -2.637400 9.737560 
18.750273 45.576939 51.953453 -6.638785 -2.793672 2.902762 -20.727631 -6.881092 1.160965 37.201893 4.053169 5.373925 0.447889 -0.724881 -1.091010 -12.093925 2.433836 -2.076756 -6.933728 -18.927525 -5.079984 -49.579391 -1.227092 37.624817 -28.584341 2.550533 -13.185123 1.443277 -8.965535 0.025099 8.954048 10.039221 1.137864 50.742004 28.400517 56.922268 16.663414 -0.146902 -26.290266 -5.110495 15.303630 -0.093974 -8.215981 3.337073 1.840387 29.581656 9.183291 -0.782351 -14.871183 2.102158 -8.938373 -5.095437 -1.356748 -8.611786 26.766260 -6.537678 9.277600 -19.409159 -2.554430 9.241938 
18.663616 45.622505 52.075096 -6.431947 -2.503692 1.951808 -20.727631 -6.881092 1.160965 36.943638 5.046904 4.216120 -0.752299 -0.211059 -0.538382 -11.105790 2.056646 -1.308318 -7.375339 -18.905491 -6.492550 -49.515842 -1.664211 39.650223 -25.950893 1.817198 -15.441298 1.097285 -8.018538 0.069045 9.262143 13.216127 -0.054384 50.624142 23.800028 57.091702 15.616351 1.127579 -29.789289 -5.430737 14.706808 -0.085414 -7.691244 3.191593 2.748799 28.751057 9.466545 -0.176281 -14.610667 2.141053 -9.265698 -5.141523 -1.248137 -8.249764 26.738295 -6.665170 9.200977 -19.782450 -2.493419 8.778141 
18.550108 45.645290 52.221970 -6.421123 -2.280541 1.320835 -20.727631 -6.881092 1.160965 37.020641 5.874463 3.457084 -1.855617 0.363308 -0.320205 -10.352673 1.619195 -0.840148 -7.774776 -18.941978 -7.562500 -49.289707 -2.109854 41.315090 -24.123995 0.999099 -17.321476 0.627122 -6.905482 0.099170 9.361113 15.909220 -1.238978 51.000362 19.622528 57.721882 15.135816 2.088324 -32.642010 -5.451127 14.033081 -0.042543 -7.101441 3.042748 3.672548 28.111336 9.938818 0.068795 -14.495420 2.183160 -9.603838 -4.851083 -1.083044 -7.926090 26.720806 -6.832704 9.106564 -20.166838 -2.423763 8.408228 
18.437698 45.659122 52.361107 -6.390974 -2.086573 0.936631 -20.727631 -6.881092 1.160965 37.090118 6.464064 2.976388 -2.803161 0.885941 -0.322272 -9.805201 1.229540 -0.594676 -8.170326 -18.997204 -8.337170 -49.176544 -2.364894 41.848057 -22.739651 0.304590 -17.825171 0.109663 -5.811789 0.121730 9.454159 18.160950 -2.277248 51.544197 16.195263 58.268452 14.756289 2.854329 -34.429619 -5.360120 13.691686 -0.025181 -6.674222 2.868058 4.465478 27.656549 10.438424 0.102382 -14.462036 2.238305 -9.903518 -4.628408 -0.917853 -7.625074 26.741405 -7.038160 9.051914 -20.535841 -2.394308 8.126277 
18.349903 45.679874 52.468102 -6.331701 -1.921808 0.769726 -20.737562 -6.871455 1.153166 37.081215 6.783766 2.663662 -3.389511 1.198713 -0.359096 -9.463176 0.995555 -0.413619 -8.372088 -18.971674 -8.855556 -49.297264 -2.579342 42.210434 -21.581535 -0.088590 -18.123442 -0.076920 -5.343007 0.159095 9.605901 19.596462 -2.846193 51.850418 14.214794 58.522209 14.273947 3.284988 -35.300262 -5.312720 13.711133 -0.084904 -6.381569 2.731551 4.911279 27.271568 10.714925 0.112959 -14.400270 2.292677 -10.082157 -4.496333 -0.769504 -7.368369 26.598473 -7.235014 9.052787 -20.803101 -2.400331 7.910902 
18.323376 45.748627 52.490486 -6.321648 -1.844194 0.760805 -20.767925 -6.784146 1.085678 36.959404 7.025215 2.476611 -3.800047 1.354656 -0.454543 -9.267747 0.810194 -0.033662 -8.545406 -18.931185 -9.013209 -49.663708 -3.312650 42.351910 -20.171888 -0.339355 -18.921549 -0.172637 -5.479673 0.300350 9.758678 20.501257 -3.142204 52.414013 13.350955 58.804096 12.723762 3.547575 -35.454498 -5.038888 14.227414 -0.512200 -6.211411 2.695857 5.059635 27.081337 10.826462 0.108127 -14.383125 2.292693 -10.158705 -4.391032 -0.614265 -7.259731 26.360477 -7.360263 9.080829 -20.956493 -2.381653 7.788641 
18.345509 45.856846 52.450207 -6.321612 -1.834488 0.818325 -20.838245 -6.629059 0.979298 36.765762 7.219114 2.349451 -4.171584 1.461042 -0.614591 -9.150484 0.624765 0.490664 -8.704717 -18.834866 -8.957061 -50.293259 -4.423209 42.287514 -18.516949 -0.493343 -19.970409 -0.219185 -5.997130 0.537525 9.924062 21.204252 -3.275704 53.218102 13.049417 59.104046 10.324514 3.683548 -35.082333 -4.611630 15.190474 -1.202642 -6.392245 2.673499 4.960193 27.406561 10.870427 0.205467 -14.509311 2.323466 -10.198945 -4.588200 -0.624575 -7.272303 26.676563 -7.352145 9.103141 -21.146875 -2.398530 7.711691 
18.360723 45.976460 52.429451 -6.351029 -1.863501 0.812734 -20.938225 -6.444986 0.840184 36.558247 7.357685 2.250350 -4.513820 1.511510 -0.789765 -9.121141 0.449056 1.101186 -8.813769 -18.690399 -8.734153 -51.042648 -5.723584 42.061672 -16.944563 -0.544222 -21.135748 -0.246456 -6.729281 0.813549 10.097790 21.693687 -3.263430 54.169773 13.150270 59.356319 7.518728 3.711640 -34.387989 -4.120937 16.413271 -2.026198 -3.442566 2.846727 5.988351 22.040379 10.487366 -1.054229 -12.275642 2.062821 -9.896173 -1.351130 0.235926 -7.690208 20.754118 -8.179107 9.178843 -18.614334 -2.228357 8.576574 
18.314304 46.078167 52.509190 -5.862623 -1.904059 0.605522 -21.067726 -6.241616 0.664941 36.377182 7.453792 2.171998 -4.826680 1.527617 -0.923359 -9.160176 0.283095 1.720697 -8.867709 -18.482817 -8.381536 -51.793339 -7.031353 41.678089 -15.788837 -0.456808 -22.287731 -0.311507 -7.480735 1.100659 10.246245 21.988583 -3.109607 55.148823 13.461856 59.525425 4.720799 3.636796 -33.554081 -3.638869 17.710051 -2.854127 -4.031430 3.054947 6.383296 22.489037 10.482532 -1.235078 -12.761832 2.103069 -9.894487 -2.019802 0.205028 -7.120937 21.307461 -7.939167 8.673472 -18.943512 -2.284649 8.513901 
18.174025 46.143669 52.737843 -4.563240 -1.966408 0.762289 -21.246241 -6.028784 0.484888 36.299309 7.489941 2.078355 -5.110087 1.525006 -0.987591 -9.267583 0.146421 2.290603 -8.851598 -18.215607 -7.939033 -52.418552 -8.170788 41.157051 -15.389533 -0.184186 -23.269833 -0.444279 -8.075794 1.343475 10.373081 22.071619 -2.863422 56.052734 13.804698 59.531151 2.354809 3.512549 -32.796795 -3.240215 18.897205 -3.561001 -5.298224 3.843516 6.490708 23.279020 10.130422 -1.432966 -13.956455 2.226347 -9.946337 -3.328105 -0.107119 -6.773130 22.423641 -6.842045 7.825305 -20.427862 -2.321217 8.258853 
18.003195 46.190048 53.021004 -3.439513 -1.959358 0.801265 -21.443983 -5.845164 0.293712 36.373863 7.466376 1.966065 -5.383473 1.523809 -0.917793 -9.443359 0.029281 2.743187 -8.739722 -17.873423 -7.446844 -52.808048 -8.942529 40.506062 -16.085451 0.331123 -23.953697 -0.692448 -8.338861 1.511400 10.444823 21.951189 -2.527460 56.770676 14.000730 59.323574 0.846805 3.419418 -32.299667 -2.985784 19.774721 -4.010572 -6.245322 4.858650 6.995960 24.287901 9.682464 -2.131020 -15.138136 2.269608 -9.720071 -4.256724 -0.087812 -6.110637 23.540859 -6.180073 6.705256 -22.104658 -2.439872 8.209658 
17.732685 46.206730 53.423367 -2.423239 -1.922109 1.038311 -21.838123 -5.613903 0.105053 36.695755 7.353427 1.781887 -5.754099 1.447991 -0.652022 -9.531251 -0.048800 3.009477 -8.617723 -17.470428 -6.698958 -52.578453 -9.299473 39.019993 -18.790054 1.003333 -24.136181 -1.544181 -7.722848 1.597147 10.348093 21.641184 -2.174065 57.176697 13.695962 58.740166 0.567172 3.432231 -32.010338 -2.947445 20.249403 -4.134361 -7.586857 6.014605 6.560614 26.354872 9.036242 -1.935936 -15.748029 2.282927 -9.478585 -4.796988 -0.086929 -5.296027 24.567963 -5.175107 5.287755 -23.926439 -2.482676 7.808083 
17.387320 46.185574 53.973003 -1.690248 -1.757048 1.438535 -22.134590 -5.235416 -0.459557 37.027157 7.344378 1.267981 -6.144622 1.461091 0.024066 -10.068369 -0.156102 3.395461 -7.912895 -16.626741 -6.056901 -52.452515 -9.216264 38.233250 -24.068979 3.160468 -24.138815 -2.301496 -6.911474 1.568840 10.677535 20.831806 -0.953070 57.634830 13.431225 56.345222 1.092946 3.561650 -31.411415 -2.832428 20.410074 -3.951506 -10.018767 7.079452 4.950794 31.019278 8.194654 -0.613840 -15.320185 2.262186 -9.869602 -4.659276 0.069141 -5.595799 25.433655 -4.812900 4.887017 -26.300915 -2.729994 8.180334 
17.040283 46.163197 54.692299 -1.299095 -1.161811 1.491183 -22.860025 -5.297351 -0.474364 38.464096 6.896046 1.075781 -7.025629 1.797962 0.530804 -10.654372 -0.399814 3.732424 -7.496720 -15.268211 -4.941483 -52.830845 -9.379661 36.231407 -29.235136 5.268596 -23.127626 -3.710084 -6.829972 1.610130 10.030010 20.158876 -0.952378 58.352757 12.277590 57.453449 1.913337 3.688146 -33.749924 -2.931978 21.146927 -3.718333 -13.557646 7.632328 3.460109 38.489830 7.125631 1.663326 -13.992710 1.951324 -8.996190 -3.746502 0.371151 -5.757548 25.848740 -5.331866 4.425889 -27.965195 -2.892962 7.947028 
16.724577 46.120071 55.705734 -1.191489 -0.673682 1.283542 -22.908533 -5.424382 -0.446180 39.529350 6.590396 0.941389 -7.103871 1.476146 1.082316 -11.992191 -0.077893 3.697419 -6.888167 -14.867287 -4.347560 -52.127083 -8.381145 34.810081 -34.637913 6.607071 -22.741966 -3.156106 -5.338108 1.339876 10.094576 18.530485 0.131891 59.396931 12.401866 57.102974 3.285067 3.903854 -35.360695 -3.869173 20.884184 -3.641049 -18.561995 8.055561 1.640569 49.150921 5.282156 4.172731 -14.104224 1.771742 -8.094906 -1.353956 0.829081 -7.079704 24.930784 -6.343646 5.069105 -29.394548 -3.101082 8.066875 
